<svg width="240" height="240" viewBox="0 0 240 240" xmlns="http://www.w3.org/2000/svg" role="img" aria-label="robot static">
  <defs>
    <linearGradient id="body" x1="0" y1="0" x2="1" y2="1">
      <stop offset="0%" stop-color="#E2E8F0"/>
      <stop offset="100%" stop-color="#CBD5F5"/>
    </linearGradient>
    <linearGradient id="accent" x1="0" y1="0" x2="1" y2="0">
      <stop offset="0%" stop-color="#7C3AED"/>
      <stop offset="100%" stop-color="#22D3EE"/>
    </linearGradient>
  </defs>

  <g id="robot">
    <g id="head">
      <rect x="86" y="42" width="68" height="56" rx="10" fill="url(#body)" stroke="#94A3B8"/>
      <rect x="104" y="32" width="32" height="8" rx="4" fill="url(#accent)"/>
      <circle cx="108" cy="70" r="4" fill="#0F172A"/>
      <circle cx="132" cy="70" r="4" fill="#0F172A"/>
      <rect x="110" y="80" width="20" height="4" rx="2" fill="#94A3B8"/>
      <circle cx="120" cy="30" r="4" fill="#22D3EE"/>
      <rect x="118.5" y="34" width="3" height="10" rx="1.5" fill="#94A3B8"/>
    </g>

    <rect x="70" y="100" width="100" height="80" rx="14" fill="url(#body)" stroke="#94A3B8"/>
    <rect x="86" y="124" width="68" height="10" rx="5" fill="url(#accent)"/>

    <rect x="46" y="112" width="18" height="54" rx="9" fill="#CBD5F5"/>
    <rect x="176" y="112" width="18" height="54" rx="9" fill="#CBD5F5"/>

    <rect x="88" y="182" width="26" height="30" rx="10" fill="#94A3B8"/>
    <rect x="126" y="182" width="26" height="30" rx="10" fill="#94A3B8"/>
  </g>
</svg>
